<svg xmlns="http://www.w3.org/2000/svg" xmlns:xlink="http://www.w3.org/1999/xlink">
<defs>
<symbol viewBox="0 0 16 16" id="icomoon-free-calendar"><!-- Icon from IcoMoon Free by Keyamoon - https://www.gnu.org/licenses/gpl.html --><path fill="currentColor" d="M5 6h2v2H5zm3 0h2v2H8zm3 0h2v2h-2zm-9 6h2v2H2zm3 0h2v2H5zm3 0h2v2H8zM5 9h2v2H5zm3 0h2v2H8zm3 0h2v2h-2zM2 9h2v2H2zm11-9v1h-2V0H4v1H2V0H0v16h15V0zm1 15H1V4h13z"></path></symbol>
<symbol viewBox="0 0 16 16" id="icomoon-free-earth"><!-- Icon from IcoMoon Free by Keyamoon - https://www.gnu.org/licenses/gpl.html --><path fill="currentColor" d="M8 0a8 8 0 1 0 0 16A8 8 0 0 0 8 0m0 15a7 7 0 0 1-2.769-.57l3.643-4.098A.5.5 0 0 0 9 10V8.5a.5.5 0 0 0-.5-.5C6.735 8 4.872 6.165 4.854 6.146A.5.5 0 0 0 4.5 6h-2a.5.5 0 0 0-.5.5v3a.5.5 0 0 0 .276.447L4 10.809v2.936A6.99 6.99 0 0 1 1 8a7 7 0 0 1 .674-3H3.5c.133 0 .26-.053.354-.146l2-2A.5.5 0 0 0 6 2.5V1.29A7 7 0 0 1 8 1c1.1 0 2.141.254 3.067.706A2.98 2.98 0 0 0 10 3.999c0 .801.312 1.555.879 2.121a3 3 0 0 0 2.268.875c.216.809.605 2.917-.131 5.818l-.013.082a6.98 6.98 0 0 1-5.002 2.104z"></path></symbol>
<symbol viewBox="0 0 16 16" id="icomoon-free-github"><!-- Icon from IcoMoon Free by Keyamoon - https://www.gnu.org/licenses/gpl.html --><path fill="currentColor" d="M8 .198a8 8 0 0 0-2.529 15.591c.4.074.547-.174.547-.385c0-.191-.008-.821-.011-1.489c-2.226.484-2.695-.944-2.695-.944c-.364-.925-.888-1.171-.888-1.171c-.726-.497.055-.486.055-.486c.803.056 1.226.824 1.226.824c.714 1.223 1.872.869 2.328.665c.072-.517.279-.87.508-1.07c-1.777-.202-3.645-.888-3.645-3.954c0-.873.313-1.587.824-2.147c-.083-.202-.357-1.015.077-2.117c0 0 .672-.215 2.201.82A7.7 7.7 0 0 1 8 4.066c.68.003 1.365.092 2.004.269c1.527-1.035 2.198-.82 2.198-.82c.435 1.102.162 1.916.079 2.117c.513.56.823 1.274.823 2.147c0 3.073-1.872 3.749-3.653 3.947c.287.248.543.735.543 1.481c0 1.07-.009 1.932-.009 2.195c0 .213.144.462.55.384A8 8 0 0 0 8.001.196z"></path></symbol>
<symbol viewBox="0 0 16 16" id="icomoon-free-heart"><!-- Icon from IcoMoon Free by Keyamoon - https://www.gnu.org/licenses/gpl.html --><path fill="currentColor" d="M11.8 1c-1.682 0-3.129 1.368-3.799 2.797C7.33 2.368 5.883 1 4.201 1a4.2 4.2 0 0 0-4.2 4.2c0 4.716 4.758 5.953 8 10.616c3.065-4.634 8-6.05 8-10.616c0-2.319-1.882-4.2-4.2-4.2z"></path></symbol>
<symbol viewBox="0 0 16 16" id="icomoon-free-home"><!-- Icon from IcoMoon Free by Keyamoon - https://www.gnu.org/licenses/gpl.html --><path fill="currentColor" d="m16 9.226l-8-6.21l-8 6.21V6.694l8-6.21l8 6.21zM14 9v6h-4v-4H6v4H2V9l6-4.5z"></path></symbol>
<symbol viewBox="0 0 16 16" id="icomoon-free-home3"><!-- Icon from IcoMoon Free by Keyamoon - https://www.gnu.org/licenses/gpl.html --><path fill="currentColor" d="m16 9.5l-3-3V2h-2v2.5l-3-3l-8 8v.5h2v5h5v-3h2v3h5v-5h2z"></path></symbol>
<symbol viewBox="0 0 16 16" id="icomoon-free-info"><!-- Icon from IcoMoon Free by Keyamoon - https://www.gnu.org/licenses/gpl.html --><path fill="currentColor" d="M7 4.75c0-.412.338-.75.75-.75h.5c.412 0 .75.338.75.75v.5c0 .412-.338.75-.75.75h-.5A.753.753 0 0 1 7 5.25zM10 12H6v-1h1V8H6V7h3v4h1z"></path><path fill="currentColor" d="M8 0a8 8 0 1 0 0 16A8 8 0 0 0 8 0m0 14.5a6.5 6.5 0 1 1 0-13a6.5 6.5 0 0 1 0 13"></path></symbol>
<symbol viewBox="0 0 16 16" id="icomoon-free-menu"><!-- Icon from IcoMoon Free by Keyamoon - https://www.gnu.org/licenses/gpl.html --><path fill="currentColor" d="M1 3h14v3H1zm0 4h14v3H1zm0 4h14v3H1z"></path></symbol>
<symbol viewBox="0 0 16 16" id="icomoon-free-minus"><!-- Icon from IcoMoon Free by Keyamoon - https://www.gnu.org/licenses/gpl.html --><path fill="currentColor" d="M0 6.5v3a.5.5 0 0 0 .5.5h15a.5.5 0 0 0 .5-.5v-3a.5.5 0 0 0-.5-.5H.5a.5.5 0 0 0-.5.5"></path></symbol>
<symbol viewBox="0 0 16 16" id="icomoon-free-phone"><!-- Icon from IcoMoon Free by Keyamoon - https://www.gnu.org/licenses/gpl.html --><path fill="currentColor" d="M11 10c-1 1-1 2-2 2s-2-1-3-2s-2-2-2-3s1-1 2-2s-2-4-3-4s-3 3-3 3c0 2 2.055 6.055 4 8s6 4 8 4c0 0 3-2 3-3s-3-4-4-3"></path></symbol>
<symbol viewBox="0 0 16 16" id="icomoon-free-pinterest"><!-- Icon from IcoMoon Free by Keyamoon - https://www.gnu.org/licenses/gpl.html --><path fill="currentColor" d="M8 1.069a6.93 6.93 0 0 0-2.525 13.384c-.059-.547-.116-1.391.025-1.988c.125-.541.813-3.444.813-3.444s-.206-.416-.206-1.028c0-.963.559-1.684 1.253-1.684c.591 0 .878.444.878.975c0 .594-.378 1.484-.575 2.306c-.166.691.344 1.253 1.025 1.253c1.231 0 2.178-1.3 2.178-3.175c0-1.659-1.194-2.819-2.894-2.819c-1.972 0-3.128 1.478-3.128 3.009c0 .597.228 1.234.516 1.581c.056.069.066.128.047.2l-.194.787c-.031.128-.1.153-.231.094c-.866-.403-1.406-1.669-1.406-2.684c0-2.188 1.587-4.194 4.578-4.194c2.403 0 4.272 1.712 4.272 4.003c0 2.388-1.506 4.313-3.597 4.313c-.703 0-1.362-.366-1.588-.797c0 0-.347 1.322-.431 1.647c-.156.603-.578 1.356-.862 1.816a6.93 6.93 0 0 0 8.984-6.622a6.93 6.93 0 0 0-6.931-6.934z"></path></symbol>
<symbol viewBox="0 0 16 16" id="icomoon-free-plus"><!-- Icon from IcoMoon Free by Keyamoon - https://www.gnu.org/licenses/gpl.html --><path fill="currentColor" d="M15.5 6H10V.5a.5.5 0 0 0-.5-.5h-3a.5.5 0 0 0-.5.5V6H.5a.5.5 0 0 0-.5.5v3a.5.5 0 0 0 .5.5H6v5.5a.5.5 0 0 0 .5.5h3a.5.5 0 0 0 .5-.5V10h5.5a.5.5 0 0 0 .5-.5v-3a.5.5 0 0 0-.5-.5"></path></symbol>
<symbol viewBox="0 0 16 16" id="icomoon-free-reddit"><!-- Icon from IcoMoon Free by Keyamoon - https://www.gnu.org/licenses/gpl.html --><path fill="currentColor" d="M4 10a1 1 0 1 1 2 0a1 1 0 0 1-2 0m6 0a1 1 0 1 1 2 0a1 1 0 0 1-2 0m.049 2.137a.593.593 0 1 1 .735.933c-.717.565-1.81.93-2.783.93s-2.066-.365-2.784-.93a.593.593 0 1 1 .735-.933c.413.325 1.23.675 2.049.675s1.636-.35 2.049-.675zM16 8a2 2 0 0 0-3.748-.972c-1.028-.562-2.28-.926-3.645-1.01L9.8 3.338l2.284.659a1.5 1.5 0 1 0 .094-1.209l-2.545-.735a.59.59 0 0 0-.707.329L7.305 6.023c-1.33.094-2.551.453-3.557 1.004a2 2 0 1 0-2.555 2.802A3.7 3.7 0 0 0 1 10.999c0 2.761 3.134 5 7 5s7-2.239 7-5c0-.403-.067-.795-.193-1.17A2 2 0 0 0 16 7.999zm-2.5-5.062a.563.563 0 1 1 0 1.126a.563.563 0 0 1 0-1.126M1 8a1 1 0 0 1 1.904-.427a5.3 5.3 0 0 0-1.276 1.355A1 1 0 0 1 1 8m7 6.813c-3.21 0-5.813-1.707-5.813-3.813S4.789 7.187 8 7.187S13.813 8.894 13.813 11S11.211 14.813 8 14.813m6.372-5.885a5.3 5.3 0 0 0-1.276-1.355C13.257 7.235 13.601 7 14 7a1.001 1.001 0 0 1 .372 1.928"></path></symbol>
<symbol viewBox="0 0 16 16" id="icomoon-free-user"><!-- Icon from IcoMoon Free by Keyamoon - https://www.gnu.org/licenses/gpl.html --><path fill="currentColor" d="M9 11.041v-.825c1.102-.621 2-2.168 2-3.716C11 4.015 11 2 8 2S5 4.015 5 6.5c0 1.548.898 3.095 2 3.716v.825c-3.392.277-6 1.944-6 3.959h14c0-2.015-2.608-3.682-6-3.959"></path></symbol>
<symbol viewBox="0 0 16 16" id="icomoon-free-vk"><!-- Icon from IcoMoon Free by Keyamoon - https://www.gnu.org/licenses/gpl.html --><path fill="currentColor" d="M14.5 0h-13C.675 0 0 .675 0 1.5v13c0 .825.675 1.5 1.5 1.5h13c.825 0 1.5-.675 1.5-1.5v-13c0-.825-.675-1.5-1.5-1.5m-1.541 11.2l-1.463.022s-.316.063-.728-.222c-.547-.375-1.063-1.353-1.466-1.225c-.406.128-.394 1.006-.394 1.006s.003.188-.091.287c-.1.109-.3.131-.3.131h-.653s-1.444.088-2.716-1.238C3.76 8.517 2.536 5.652 2.536 5.652s-.072-.188.006-.278c.087-.103.322-.109.322-.109l1.566-.009s.147.025.253.103c.088.063.134.184.134.184s.253.641.588 1.219c.653 1.128.959 1.375 1.181 1.256c.322-.175.225-1.597.225-1.597s.006-.516-.162-.744c-.131-.178-.378-.231-.484-.244c-.088-.013.056-.216.244-.309c.281-.138.778-.147 1.366-.141c.456.003.591.034.769.075c.541.131.356.634.356 1.841c0 .388-.069.931.209 1.109c.119.078.412.012 1.147-1.234c.347-.591.609-1.284.609-1.284s.056-.125.144-.178c.091-.053.213-.037.213-.037l1.647-.009s.494-.059.575.166c.084.234-.184.781-.856 1.678c-1.103 1.472-1.228 1.334-.309 2.184c.875.813 1.056 1.209 1.088 1.259c.356.6-.406.647-.406.647z"></path></symbol>
<symbol viewBox="0 0 24 24" id="iconamoon-search-thin"><!-- Icon from IconaMoon by Dariush Habibpour - https://creativecommons.org/licenses/by/4.0/ --><path fill="none" stroke="currentColor" stroke-linecap="round" stroke-linejoin="round" d="m21 21l-4.343-4.343m0 0A8 8 0 1 0 5.343 5.343a8 8 0 0 0 11.314 11.314"></path></symbol>
<symbol viewBox="0 0 16 16" id="qlementine-icons-sun-16"><!-- Icon from Qlementine Icons by Olivier Cléro - https://github.com/oclero/qlementine-icons/blob/master/LICENSE --><path fill="currentColor" d="M9.52.371a.5.5 0 1 1 .966.258l-.455 1.71a.5.5 0 1 1-.966-.258zM5.87.017a.5.5 0 0 1 .612.354l.454 1.7a.5.5 0 0 1-.966.258l-.454-1.7A.5.5 0 0 1 5.87.017"></path><path fill="currentColor" fill-rule="evenodd" d="M8 12c2.21 0 4-1.79 4-4s-1.79-4-4-4s-4 1.79-4 4s1.79 4 4 4m0-1c1.66 0 3-1.34 3-3S9.66 5 8 5S5 6.34 5 8s1.34 3 3 3" clip-rule="evenodd"></path><path fill="currentColor" d="M.913 5.03a.5.5 0 1 0-.326.946l1.58.545a.5.5 0 1 0 .326-.946zM2.41 1.88a.5.5 0 0 1 .706.032l1.21 1.32a.5.5 0 1 1-.738.674l-1.21-1.32a.5.5 0 0 1 .032-.706M15.7 5.34a.5.5 0 0 0-.636-.31l-1.58.544a.5.5 0 0 0 .326.946l1.58-.544a.5.5 0 0 0 .31-.636m-2.8-3.43a.5.5 0 1 1 .738.674l-1.21 1.32a.5.5 0 0 1-.738-.674zM10.1 16a.5.5 0 0 1-.612-.354l-.455-1.71a.5.5 0 0 1 .966-.258l.455 1.71A.5.5 0 0 1 10.1 16m5-5a.5.5 0 1 0 .326-.946l-1.58-.543a.5.5 0 1 0-.326.946zm-1.5 3.1a.5.5 0 0 1-.706-.032l-1.2-1.31a.5.5 0 1 1 .738-.674l1.2 1.31a.5.5 0 0 1-.032.706m-7.12 1.5a.499.499 0 1 1-.966-.258l.453-1.7a.5.5 0 1 1 .966.258zM.277 10.7a.5.5 0 0 0 .636.31l1.57-.542a.5.5 0 0 0-.326-.946l-1.57.542a.5.5 0 0 0-.31.636m2.843 3.4a.5.5 0 0 1-.738-.674l1.21-1.32a.5.5 0 0 1 .738.674z"></path></symbol>

</defs>
</svg>